<svg enable-background="new 0 0 400 400" viewBox="0 0 400 400" xmlns="http://www.w3.org/2000/svg"><path d="m270.6 375.09c-.78-2.21-1.97-4.11-2.06-6.06-.58-12.4-2.19-24.94-1.05-37.21 2.19-23.49.3-46.95 1.19-70.39.1-2.77.99-5.51 1.06-8.27.21-7.48-.28-15.01.32-22.45 1.69-20.86-.93-41.53-2.3-62.25-.5-7.6-2.1-15.01-5.26-22.07-1.05-2.35-1.34-5.21-1.32-7.83.03-3.74-1.45-5.91-5.65-6.88-6.45 7.85-13.06 15.87-19.63 23.91-5.8 7.1-11.35 14.43-17.41 21.3-4.29 4.87-9.98 7.83-16.4 9.25-2.52.56-3.84-.25-4.02-2.84-.18-2.54.46-4.64 1.6-7.12 6.65-14.44 19.13-24.36 27.88-37.1 4.96-7.23 10.86-13.47 16.73-19.84.86-.93 1.13-2.38 1.76-3.54.83-1.55 1.36-3.58 2.66-4.49 5.03-3.53 5.14-8.45 4.04-13.52-1.49-6.87-3.47-13.64-5.23-20.45-.67-2.61-1.31-5.22-2.02-7.82-.23-.85-.41-1.92-1-2.45-5.48-4.89-5.07-12.18-7.52-18.3-.7-1.75 3.98-7.88 6.3-8.38 1.81 9.71 8.5 17 12.76 25.53 2.38 4.76 3.77 10.01 5.61 15.04.38 1.05.56 2.23 1.16 3.13.69 1.04 1.74 1.83 2.63 2.74.63-.95 1.34-1.86 1.86-2.87.91-1.79 1.36-3.92 2.6-5.41 4.26-5.12 3.95-10.95 3.82-17.11-.21-9.92.42-19.86.74-29.79.03-.87.28-1.79.62-2.6.5-1.17 1.37-3.28 1.76-3.21 1.43.26 3.3.92 3.95 2.04 1.41 2.46 2.48 5.23 3.15 8 1.5 6.19 2.77 12.43 3.92 18.7.41 2.25.19 4.61.25 6.93.09 3.63.17 7.26.26 10.88.01.55.29 1.17.13 1.64-2.13 6.04-2.45 12.76-7.1 17.84-1.8 1.97-3.04 4.45-4.8 6.46-6.48 7.42-7.26 16.41-3.82 24.58 4.49 10.68 4.28 22.03 7.17 32.85.44 1.63.01 3.48.03 5.23.01.86.04 1.74.18 2.59.31 1.89 1.3 3.88.96 5.62-1.16 5.96.96 11.52 1.58 17.25.25 2.32.31 4.67.55 6.99.44 4.19 1.35 8.36 1.38 12.54.15 18.47.84 36.99-.15 55.41-1.04 19.47-.58 38.94-1.42 58.36-.52 11.96-3.57 23.81-5.5 35.71-.55 3.42-1.31 6.82-1.67 10.26-.39 3.61-1.52 6.72-5.28 9.47z" fill="#010100"/><path d="m156.82 174.76c-2.37 1.73-4.69 3.13-6.62 4.95-1.2 1.13-1.55 3.14-2.72 4.33-8.3 8.4-16.63 16.78-25.11 24.99-4.77 4.62-10.34 8.13-17.32 10.56.7-3.36 1.24-5.94 2.65-8.95 3.86-8.27 13.12-12.17 15.84-21.28.94-3.17 4.19-5.7 6.56-8.37 6.02-6.76 12.13-13.42 18.21-20.13.83-.91 1.59-1.88 2.47-2.74 5.11-4.99 6.65-10.45 3.98-17.52-2.59-6.87-3.87-14.22-5.97-21.29-.91-3.05-2.42-5.91-3.69-8.85-.35-.82-.84-1.58-1.16-2.41-5-12.78-10.02-25.55-14.94-38.36-1.11-2.88-1.85-5.91-2.82-9.04 4.2-.58 6.96.19 9.88 3.15 12.45 12.61 18.88 28.31 24.19 44.69.37 1.15.51 2.44.45 3.64-.19 3.72.72 6.94 3.18 9.88.94 1.12.8 3.1 1.3 4.64.27.85.69 2.08 1.32 2.28s2.09-.47 2.34-1.1c2.08-5.25 4.23-10.5 5.85-15.91 1.72-5.75 2.54-11.78 4.39-17.48 2.78-8.57 2.63-17.45 3.22-26.22.55-8.33.12-16.73.12-25.13 4.94.91 9.53 5.28 10.01 11.2.79 9.81 2.89 19.73-.3 29.53-.16.5-.34 1.23-.11 1.6 2.48 3.98.85 8.04.25 12.04-1.23 8.29-2.66 16.54-3.86 24.83-1.06 7.29-4.44 13.61-8.63 19.36-4.08 5.6-7.17 11.31-6.88 18.41.03.78-.2 1.7.13 2.32 4.62 8.67 2.95 18.39 4.67 27.54 2.79 14.86-.94 30.05 1.54 44.79 2.96 17.58-.45 35.28 2.31 52.78.43 2.7-.2 5.55-.25 8.34-.06 2.9-.12 5.8 0 8.7.18 4.4.88 8.64-.08 13.21-.91 4.35-.01 9.13.39 13.7.75 8.58-1.19 16.41-6.27 23.34-.91 1.24-2.76 1.78-4.18 2.64-.67-1.16-1.34-2.31-2.01-3.47-.05-.09-.03-.23-.08-.32-4.86-9.89-3.33-20.45-3.41-30.88-.14-20.03-.36-40.06-.87-60.09-.24-9.38-1.42-18.74-1.82-28.12-.15-3.4-1.2-7.14 1.53-10.24.24-.27.1-1.2-.2-1.57-3.23-4.06-1.74-8.49-1.22-12.9.23-1.93.06-3.95-.21-5.89-.86-6.17-2.01-12.29-2.75-18.47-.44-3.75-.48-7.57-3.3-10.71z" fill="#010100"/><g fill="#fafbfa"><path d="m6.4 11.7c-1-.8-1.9-1.6-2.9-2.3l.6-.7c.9.7 1.9 1.4 2.9 2.2zm-2.1 8.3c.7-2.1 1.4-4.2 2-6.4.2.1.6.3 1 .4-.7 2.3-1.3 4.4-1.9 6.4zm3-12.8c-1.1-.9-2.1-1.7-2.9-2.4l.6-.7c1 .8 2 1.5 3 2.4zm1.4-1.3v-.9h10.2v.9c-.9 4.2-2.3 7.3-4.1 9.4 1.3 1.4 3.2 2.7 5.7 4-.2.2-.4.5-.7.9-2.5-1.4-4.4-2.7-5.7-4.2-1.4 1.5-3.5 3-6.1 4.4 0 0 0 0-.1-.1-.3-.4-.5-.7-.7-.8 2.7-1.3 4.7-2.8 6.2-4.2-1.8-2.2-3-5.3-3.7-9.4zm9.2 0h-7.1c.6 3.8 1.7 6.7 3.4 8.7 1.7-2 2.9-4.8 3.7-8.7z"/><path d="m31.6 3.6h.9v2.3h4.1v9.1h1.7v.9h-16.6v-.9h1.7v-9.1h4.1v-2.3h.9v2.3h3.1v-2.3zm-4 13.3.6.8c-1.9.9-3.8 1.9-5.8 2.8-.2-.3-.3-.6-.5-.9 2-.9 3.9-1.8 5.7-2.7zm-3.2-10.1v3.7h3.1v-3.7zm0 4.5v3.7h3.1v-3.7zm4.1-4.5v3.7h3.1v-3.7zm0 4.5v3.7h3.1v-3.7zm9.1 9.1c-2.1-1.1-4.1-2-5.8-2.7l.5-.8c2.2.9 4.1 1.8 5.8 2.6zm-1.9-13.6h-3.1v3.7h3.1zm-3.2 4.5v3.7h3.1v-3.7z"/></g></svg>