<svg xmlns="http://www.w3.org/2000/svg" width="1024" height="1024" viewBox="0 0 400 400" preserveAspectRatio="xMidYMid meet">
<g fill="#010100"><path d="m149.54 181.73c-3.51 16.67-7.37 33.33-10.37 50.15-1 5.58.07 11.57.48 17.35.09 1.22 1.29 2.45 2.17 3.51 4.13 4.97 8.52 9.74 12.4 14.89 1.54 2.05 2.3 4.84 2.88 7.41.34 1.51.19 4.12-.73 4.72-1.94 1.27-4.25 2.63-6.97.43-3.63-2.94-7.69-5.35-12.33-8.51-1.3 6.24-2.9 11.93-3.59 17.74-1.21 10.21-1.55 20.53-2.9 30.71-.57 4.3-2.48 8.53-4.36 12.52-1.52 3.21-4.54 5.11-8.32 5.97-4.92-6.74-6.89-14.49-6.46-22.46.57-10.46 2.23-20.87 3.5-31.29 1.2-9.88 2.68-19.73 3.7-29.62.7-6.79-.74-13.36-3.48-19.61-.85-1.94-1.78-3.86-2.81-5.71-3.9-6.98-6.1-14.26-5.07-22.43.63-4.98.37-10.06.75-15.08.08-.99 1.06-2.21 1.97-2.77 1.38-.85 2.55-.37 3.49 1.24 2.75 4.72 5.71 9.32 8.89 14.47 3.11-7.94 6.02-15.37 8.93-22.81.49-1.25 1.09-2.47 1.42-3.76 1.72-6.74 5.31-11.91 12.02-14.48 2.27-.87 2.19-2.45 2.09-4.55-.31-6.35-2.6-10.17-9.33-12.37-8.98-2.94-17.63-7.36-24.5-14.16-3.2-3.17-5.51-7.24-8.15-10.95-1.51-2.12-1.06-3.58 1.28-5.08 12.15-7.79 24.13-15.82 36.28-23.61 2.17-1.39 2.85-2.95 3.06-5.4 1.38-16.05 2.07-32.11 2.13-48.22.02-4.88 1.73-9.76 2.78-15.23 6.87 4.84 10.31 10.93 11.13 18.11.78 6.85.29 13.84.71 20.74.29 4.75.82 9.56 1.92 14.17.94 3.93 3.79 6.73 7.6 8.43 2.13.95 4.07 1.04 5.05-1.32 1.22-2.92 2.34-5.94 2.95-9.02.42-2.13.02-4.46-.21-6.69-.85-8.46 4.62-18.6 12.27-22.47 1.04-.53 2.25-.73 3.92-1.25 1.44 8.65 2.99 16.86 4.12 25.13.86 6.3 2.37 8.91 8.55 10.41 4.52 1.09 9.27 1.24 13.9 1.88 2.22.31 3.4-.7 3.76-2.76 1.59-9 3.21-18 4.69-27.02 1.01-6.17 1.55-12.42 2.81-18.53.55-2.66 2.38-5.06 3.99-8.29 6.62 9.34 10.9 18.39 11.36 28.9.45 10.4.84 20.8 1.08 31.2.05 2.23.78 3.41 2.84 4.24 13.41 5.44 22.98 15.61 32.12 26.29.58.68 1.03 1.46 1.55 2.19 2.96 4.2 3.56 8.05.23 12.75-2.73 3.85-5.54 6.91-9.87 8.98-9.28 4.43-18.37 9.25-27.44 14.09-1.54.82-3.27 2.36-3.72 3.92-1.18 4.11-2.63 8.49-2.32 12.63.75 9.9-.07 19.1-6.07 27.49-2.62 3.66-2.53 7.94-.31 12.08 4.33 8.06 8.56 16.17 13 24.57 4.26-4.25 6.39-9.32 6.97-14.75.99-9.33 1.32-18.72 1.96-28.09.27-4.01.42-8.04 1.03-12 .53-3.47 2.18-6.34 6.83-7.01 1.3 5.02 2.83 10 3.85 15.09 2.82 14.1 4.39 28.3 2.5 42.69-.43 3.26-1.42 6.1-3.66 8.74-1.62 1.91-2.91 4.69-3.06 7.16-.33 5.57-2.96 10.04-5.89 14.36-2.27 3.36-2.42 6.4-1.31 10.27 7.8 27.17 15.43 54.39 22.88 81.65 1.22 4.47 1.74 9.23 1.85 13.88.1 4.06-2.14 6.04-6.22 6.8-.13-.72-.45-1.47-.35-2.16.83-5.38-1.29-9.62-4.49-13.79-4.96-6.48-9.64-13.19-14.11-20.02-1.91-2.92-3.47-6.23-4.41-9.59-3.2-11.4-6.04-22.9-9.05-34.36-1.32-5.05-3.89-5.9-8.35-2.99-1.47.96-3.1 1.87-4.78 2.23-5.94 1.28-9.04-1.96-7.88-7.94.79-4.08 2.04-7.77 4.66-11.26 6.36-8.49 7.97-18.06 4.65-28.27-4-12.33-8.02-24.65-12.12-36.94-.66-1.97-.49-3.53.67-5.28 2.84-4.29 5.57-8.66 8.12-13.12.7-1.22 1-2.95.8-4.35-1.11-7.52-2.35-15.02-3.75-22.49-.26-1.39-1.16-2.94-2.24-3.84-4.47-3.72-17.66-4.81-22.57-1.98-.71.41-1.19 1.3-1.64 2.05-2.19 3.64-4.35 7.3-6.47 10.98-1.53 2.66-3.7 4.23-6.83 3.91-3.1-.32-5.81-1.16-6.87-4.77-1-3.42-2.44-6.71-3.75-10.03-1.62-4.14-9.93-6.1-13.02-3.02-.57.57-.73 1.6-.97 2.46-1.33 4.85-2.62 9.71-3.92 14.57-.12.43-.11.92-.31 1.3-1.01 1.86-2.1 3.67-3.12 5.52-1.67 3.05-3.75-.28-6.09.53zm60.3-45.26c1.23 0 2.46.05 3.69-.01 6.9-.31 11.33-3.77 12.74-10.46.76-3.58 1.09-7.29 1.18-10.95.15-6.12-3.06-10.67-8.83-12.86-.9-.34-2.18-.25-3.09.13-3.82 1.56-7.59 3.26-11.32 5.01-.83.39-2.05 1.13-2.12 1.8-.68 6.62-2 13.33-1.45 19.87.61 7.41 1.87 7.74 9.2 7.47zm-41.15-29.77c-5.43 7.71-6.02 17.94-1.05 24.89 1.4 1.96 4.52 3.75 6.83 3.73 3-.03 4.83-2.72 4.85-6.15.02-3.68.72-7.42.26-11.02-.31-2.42-1.64-5.13-3.36-6.84-2.04-2.04-5.01-3.14-7.53-4.61zm97.79 16.43c-3.55-5.08-7.28-9.52-13.25-11.15-1.14-.31-3.23-.08-3.74.68-2.7 3.99-4.14 8.35-2.64 13.31.66 2.17 1.73 3.1 4.04 3.05 5.8-.14 10.96-1.85 15.59-5.89zm-136.45-3.88c.7.84 1.36 1.46 1.83 2.21 2.67 4.32 6.02 5.95 11.06 3.72 2.04-.9 3.88-1.23 3.95-3.98.07-2.79-.89-4.6-3.57-5.71-5.34-2.19-9.42-.22-13.27 3.76z"/><path d="m149.04 323.05c1.88-1.73 3.78-3.63 5.86-5.31.79-.64 1.99-1.09 3-1.07 25.93.55 51.86 1.15 77.79 1.83 1.51.04 3.13.51 4.47 1.21 3.25 1.71 3.76 6.06.66 7.93-4.75 2.86-9.67 5.67-14.88 7.47-6.72 2.32-13.74 3.92-20.75 5.22-2.76.52-6.18.13-8.7-1.08-8.45-4.07-17.67-3.57-26.5-5.23-1.75-.33-3.55-.71-5.32-.66-7.47.22-12.86-2.73-15.63-10.31z"/><path d="m205.25 248.05c-5.2 1.52-10.25 3.31-15.45 4.37-2.17.44-4.76-.37-6.99-1.12-4.54-1.52-8.88-3.67-13.46-5.02-3.36-.99-5.7-2.68-7.26-5.77-.95-1.88-2.25-3.57-3.59-5.66 1.37-1.06 2.64-2.04 3.92-3.03.4.28.78.41.92.66 3.69 6.53 9.63 6.08 15.73 5.06 3.3-.55 6.6-1.11 9.87-1.83 10.59-2.33 15.07.86 16.31 12.34z"/></g><path d="m6.4 11.7c-1-.8-1.9-1.6-2.9-2.3l.6-.7c.9.7 1.9 1.4 2.9 2.2zm-2.1 8.3c.7-2.1 1.4-4.2 2-6.4.2.1.6.3 1 .4-.7 2.3-1.3 4.4-1.9 6.4zm3-12.8c-1.1-.9-2.1-1.7-2.9-2.4l.6-.7c1 .8 2 1.5 3 2.4zm1.4-1.3v-.9h10.2v.9c-.9 4.2-2.3 7.3-4.1 9.4 1.3 1.4 3.2 2.7 5.7 4-.2.2-.4.5-.7.9-2.5-1.4-4.4-2.7-5.7-4.2-1.4 1.5-3.5 3-6.1 4.4 0 0 0 0-.1-.1-.3-.4-.5-.7-.7-.8 2.7-1.3 4.7-2.8 6.2-4.2-1.8-2.2-3-5.3-3.7-9.4zm9.2 0h-7.1c.6 3.8 1.7 6.7 3.4 8.7 1.7-2 2.9-4.8 3.7-8.7z" fill="#fafbfa"/><path d="m31.6 3.6h.9v2.3h4.1v9.1h1.7v.9h-16.6v-.9h1.7v-9.1h4.1v-2.3h.9v2.3h3.1v-2.3zm-4 13.3.6.8c-1.9.9-3.8 1.9-5.8 2.8-.2-.3-.3-.6-.5-.9 2-.9 3.9-1.8 5.7-2.7zm-3.2-10.1v3.7h3.1v-3.7zm0 4.5v3.7h3.1v-3.7zm4.1-4.5v3.7h3.1v-3.7zm0 4.5v3.7h3.1v-3.7zm9.1 9.1c-2.1-1.1-4.1-2-5.8-2.7l.5-.8c2.2.9 4.1 1.8 5.8 2.6zm-1.9-13.6h-3.1v3.7h3.1zm-3.2 4.5v3.7h3.1v-3.7z" fill="#fafbfa"/>
</svg>