<svg enable-background="new 0 0 400 400" viewBox="0 0 400 400" xmlns="http://www.w3.org/2000/svg"><path d="m190.19 374.86c-.37-3.11-1.28-5.87-.88-8.43.81-5.18 2.83-9.57 7.21-13.37 17.22-14.97 32.04-32.12 44-51.65 2.82-4.6 3.97-9.01 1.89-14.44-4.98-13.02-6.34-26.69-5.87-40.53.65-18.99-3.19-37.34-7.44-55.65-.48-2.07-.74-4.19-1.34-6.22-1.61-5.42-2.08-10.63 1.61-15.54.65-.87.75-2.33.73-3.51-.41-32.33-.77-64.66-1.45-96.99-.07-3.27-2.28-6.45-3.21-9.75-1.72-6.17-5.44-10.14-11.25-13.1-9.34-4.76-9.63-6.5-7.52-16.84.65-3.2 1.84-4.07 5.14-3.59 19.37 2.82 35.15 12.57 48.37 26.21 8.83 9.11 16.19 19.65 24.11 29.63 7.02 8.85 13.98 17.75 20.8 26.76 1.19 1.57 2.02 3.74 2.2 5.7.69 7.8 1.84 15.43 4.01 23.04 11.05 38.73 7.97 76.89-4.75 114.77-4.34 12.92-11.63 23.97-19.71 34.44-17.09 22.17-35.69 43.09-55.75 62.64-11.03 10.75-23.22 20-37.86 25.48-.59.22-1.23.38-3.04.94zm72.47-278.64c-3.15 3.05-6.24 4.89-5.71 9.67 1.49 13.44 2.47 26.94 3.65 40.41 2.17 24.83 4.34 49.66 6.52 74.5.72 8.18 1.47 16.36 2.24 24.94 5.42-3.46 10.93-6.07 11.8-13.07.3-2.41 1.27-4.74 1.83-7.13 9.01-38.23 6.63-75.42-10.5-111.16-2.92-6.09-6.42-11.9-9.83-18.16z" fill="#010102"/><path d="m78.41 178.44c.87-13.76 3.88-27.46 8.77-40.76.3-.82.84-1.57 1.35-2.31 1.21-1.75 2.46-3.46 3.71-5.19 5.5-7.62 10.06-16.21 16.75-22.57 6.61-6.28 15.35-10.31 23.17-15.31 7.16-4.58 14.54-8.85 21.41-13.83 4.2-3.05 8.19-3.11 12.84-2.04 14.12 3.23 25.45 10.86 34.32 22.04 11.71 14.75 20.03 31.14 22.97 49.99 2.28 14.62-.97 28.2-7.31 41.23-4.3 8.84-8.77 17.6-13.28 26.34-.69 1.33-1.78 2.58-2.96 3.52-10.42 8.28-21.23 16.12-31.27 24.83-7.48 6.49-15.78 7.66-24.73 5.94-15.31-2.94-29.3-9.39-42.61-17.37-.99-.6-1.85-1.63-2.44-2.65-5.16-8.9-10.44-17.74-15.29-26.8-4.08-7.63-5.25-16.06-5.4-25.06zm42.23-36.86c-12.69 8.21-14.39 10.89-17.39 27.1-1.21 6.55.07 12.49 3.91 18.36 3.28-4.51 6.45-8.68 9.4-13 1.2-1.76 2.49-2.17 4.49-1.81 11.03 2.01 16.02 7.73 16.45 18.99.3 7.97 1.16 15.82 4.76 23.13.82 1.67 1.65 2.31 3.58 1.94 6.25-1.22 12.55-2.21 18.8-3.41 1.09-.21 2.57-.77 3.02-1.62 2.86-5.5 4.31-11.19.09-16.7-2.44-3.18-4.96-6.37-7.88-9.1-3.87-3.62-4.55-7.98-3.2-12.53 1.35-4.53 5.65-4.86 9.63-5.18.67-.05 1.34 0 2.01-.03 7.26-.27 14.54-.28 21.44-3.1 1.88-.77 2.76-1.7 2.71-3.9-.32-13.25-3.23-25.96-8.39-38.07-3.95-9.26-10.87-15.44-21.04-17.46-2.83-.56-14.66 6.17-15.55 8.89-.24.74-.34 1.53-.52 2.29-2.55 11.02 1.1 19.98 9.04 27.57 2.48 2.37 3.16 7.63 1.42 10.56-.29.49-1 .84-1.59 1.03-6.88 2.25-13.73 2.64-19.89-1.8-5.23-3.8-10.13-8.03-15.3-12.15z" fill="#010102"/><g fill="#fcfbfa"><path d="m385.2 377.6.6-.7c.6.4 1.3.9 1.9 1.5l-.6.7c-.8-.5-1.4-1-1.9-1.5zm.3 7.1c.6-1.4 1.1-2.9 1.5-4.5.3.1.6.3.9.4-.5 1.4-1 2.9-1.5 4.4zm.2-10.1.6-.6c.7.5 1.3 1.1 1.9 1.6l-.7.7c-.6-.6-1.2-1.2-1.8-1.7zm8.4-.8h.8v.9h1.8v.7h-1.8v1.8h-.8v-.3h-1.2v.9h3.3v2.6h-.8v-.4h-2.5c0 .3 0 .6-.1.8h3.4v.7h-3.5c0 .3-.1.6-.1.8h4v.7h-3.5c.7.9 1.9 1.3 3.6 1.5-.2.2-.4.5-.6.9-1.9-.3-3.2-1.1-3.8-2.3-.5 1.1-1.8 2-3.9 2.4-.2-.3-.4-.5-.6-.8 1.9-.4 3.1-.9 3.6-1.7h-3.2v-.7h3.5c.1-.2.1-.5.2-.8h-3.3v-.7h3.4c0-.2 0-.5 0-.8h-2.4v.3h-.8v-2.6h3.3v-.9h-1.2v.3h-.8v-1.8h-1.8v-.7h1.8v-.9h.8v.9h3.2zm-4.4 5.5h2.4c0-.3 0-.6 0-.9h-2.4zm1.2-3.1h3.2v-.8h-3.2zm4.4 2.2h-2.4v.9h2.5v-.9z"/><path d="m389.2 385.8h.9v1.5h1.9v-1.5h.9v1.5h2.7v6h1.1v.9h-11.3v-.9h1.1v-6h2.7zm.2 8.7.5.8c-1.2.6-2.5 1.3-4 1.9-.2-.3-.3-.6-.6-.8 1.6-.6 3-1.3 4.1-1.9zm-2-4.3h1.9v-2.1h-1.9zm0 3.1h1.9v-2.2h-1.9zm2.7-3.1h1.9v-2.1h-1.9zm0 3.1h1.9v-2.2h-1.9zm2.4 1.3c1.4.6 2.7 1.2 4.1 1.8l-.5.9c-1.5-.7-2.8-1.4-4.1-1.9zm2.2-6.5h-1.9v2.1h1.9zm-1.9 5.2h1.9v-2.2h-1.9z"/></g></svg>